<svg width="1200" height="627" viewBox="0 0 1200 627" fill="none" xmlns="http://www.w3.org/2000/svg">
<g clip-path="url(#clip0_511_83)">
<rect width="1200" height="627" fill="#252525"/>
<rect x="512" y="566.264" width="600" height="600" transform="rotate(-45 512 566.264)" fill="#DFF6FF" fill-opacity="0.25"/>
<circle cx="1216.5" cy="-30.5" r="233.5" fill="#DFF6FF"/>
<path d="M475 -17L345 113H475L475 -17Z" fill="#5B6164"/>
<path d="M475 113L345 243H475L475 113Z" fill="#5B6164"/>
<path d="M345 -17L215 113H345L345 -17Z" fill="#5B6164"/>
<path d="M215 -17L85 113H215L215 -17Z" fill="#5B6164"/>
<path d="M345 113L215 243H345L345 113Z" fill="#5B6164"/>
<path d="M215 113L85 243H215L215 113Z" fill="#5B6164"/>
<rect x="1090.7" y="-234.736" width="596" height="596" transform="rotate(135 1090.7 -234.736)" stroke="url(#paint0_linear_511_83)" stroke-width="4"/>
<rect x="1055.34" y="-234.736" width="546" height="546" transform="rotate(135 1055.34 -234.736)" stroke="url(#paint1_linear_511_83)" stroke-width="4"/>
<rect x="1019.99" y="-234.736" width="496" height="496" transform="rotate(135 1019.99 -234.736)" stroke="url(#paint2_linear_511_83)" stroke-width="4"/>
<rect x="949.278" y="-234.736" width="396" height="396" transform="rotate(135 949.278 -234.736)" stroke="url(#paint3_linear_511_83)" stroke-width="4"/>
<rect x="984.634" y="-234.736" width="446" height="446" transform="rotate(135 984.634 -234.736)" stroke="url(#paint4_linear_511_83)" stroke-width="4"/>
<rect x="913.923" y="-234.736" width="346" height="346" transform="rotate(135 913.923 -234.736)" stroke="url(#paint5_linear_511_83)" stroke-width="4"/>
<rect x="398" y="420.07" width="10" height="10" transform="rotate(-45 398 420.07)" fill="#DFF6FF"/>
<rect x="398" y="470.07" width="10" height="10" transform="rotate(-45 398 470.07)" fill="#DFF6FF"/>
<rect x="398" y="520.07" width="10" height="10" transform="rotate(-45 398 520.07)" fill="#DFF6FF"/>
<rect x="448" y="420.07" width="10" height="10" transform="rotate(-45 448 420.07)" fill="#DFF6FF"/>
<rect x="448" y="470.07" width="10" height="10" transform="rotate(-45 448 470.07)" fill="#DFF6FF"/>
<rect x="448" y="520.07" width="10" height="10" transform="rotate(-45 448 520.07)" fill="#DFF6FF"/>
<rect x="498" y="420.07" width="10" height="10" transform="rotate(-45 498 420.07)" fill="#DFF6FF"/>
<rect x="498" y="470.07" width="10" height="10" transform="rotate(-45 498 470.07)" fill="#DFF6FF"/>
<rect x="498" y="520.07" width="10" height="10" transform="rotate(-45 498 520.07)" fill="#DFF6FF"/>
<rect x="548" y="420.07" width="10" height="10" transform="rotate(-45 548 420.07)" fill="#DFF6FF"/>
<rect x="548" y="470.07" width="10" height="10" transform="rotate(-45 548 470.07)" fill="#DFF6FF"/>
<rect x="548" y="520.07" width="10" height="10" transform="rotate(-45 548 520.07)" fill="#DFF6FF"/>
<rect x="598" y="420.07" width="10" height="10" transform="rotate(-45 598 420.07)" fill="#DFF6FF"/>
<rect x="598" y="470.07" width="10" height="10" transform="rotate(-45 598 470.07)" fill="#DFF6FF"/>
<rect x="598" y="520.07" width="10" height="10" transform="rotate(-45 598 520.07)" fill="#DFF6FF"/>
<rect x="-359.172" y="238.264" width="596" height="596" transform="rotate(-45 -359.172 238.264)" stroke="url(#paint6_linear_511_83)" stroke-width="4"/>
<rect x="-323.816" y="238.264" width="546" height="546" transform="rotate(-45 -323.816 238.264)" stroke="url(#paint7_linear_511_83)" stroke-width="4"/>
<rect x="-288.461" y="238.264" width="496" height="496" transform="rotate(-45 -288.461 238.264)" stroke="url(#paint8_linear_511_83)" stroke-width="4"/>
<rect x="-217.75" y="238.264" width="396" height="396" transform="rotate(-45 -217.75 238.264)" stroke="url(#paint9_linear_511_83)" stroke-width="4"/>
<rect x="-253.106" y="238.264" width="446" height="446" transform="rotate(-45 -253.106 238.264)" stroke="url(#paint10_linear_511_83)" stroke-width="4"/>
<rect x="-182.395" y="238.264" width="346" height="346" transform="rotate(-45 -182.395 238.264)" stroke="url(#paint11_linear_511_83)" stroke-width="4"/>
<path fill-rule="evenodd" clip-rule="evenodd" d="M1000 393C1000 420.614 977.614 443 950 443C977.614 443 1000 465.386 1000 493C1000 465.386 1022.39 443 1050 443C1022.39 443 1000 420.614 1000 393Z" fill="#1363DF"/>
<path fill-rule="evenodd" clip-rule="evenodd" d="M1000 513C1000 540.614 977.614 563 950 563C977.614 563 1000 585.386 1000 613C1000 585.386 1022.39 563 1050 563C1022.39 563 1000 540.614 1000 513Z" fill="#1363DF"/>
<path fill-rule="evenodd" clip-rule="evenodd" d="M1000 273C1000 300.614 977.614 323 950 323C977.614 323 1000 345.386 1000 373C1000 345.386 1022.39 323 1050 323C1022.39 323 1000 300.614 1000 273Z" fill="#1363DF"/>
<rect x="1200" y="627" width="1200" height="627" transform="rotate(-180 1200 627)" fill="black" fill-opacity="0.65"/>
<path d="M850 263L800 63L750 263L550 313L750 363L800 563L850 363L1050 313L850 263Z" fill="white"/>
<path d="M321.5 533.605C321.5 541.605 319.25 547.655 314.75 551.755C310.15 555.855 303.6 557.905 295.1 557.905L289.1 557.905L289.1 542.305L296.3 542.305C303.1 542.305 306.5 539.455 306.5 533.755C306.5 530.955 305.7 528.855 304.1 527.455C302.4 525.955 299.7 525.205 296 525.205C291.6 525.205 287.75 526.205 284.45 528.205C281.05 530.205 277 533.905 272.3 539.305C266.3 546.105 260.9 550.855 256.1 553.555C251.2 556.255 245.7 557.605 239.6 557.605C231.3 557.605 224.9 555.505 220.4 551.305C215.8 547.105 213.5 541.005 213.5 533.005C213.5 525.105 215.8 519.155 220.4 515.155C224.9 511.055 231.4 509.005 239.9 509.005L244.25 509.005L244.25 524.605L238.85 524.605C235.25 524.605 232.65 525.305 231.05 526.705C229.35 528.105 228.5 530.155 228.5 532.855C228.5 538.355 231.85 541.105 238.55 541.105C242.35 541.105 245.9 540.105 249.2 538.105C252.5 536.005 256.5 532.255 261.2 526.855C267.2 519.955 272.65 515.205 277.55 512.605C282.45 510.005 288.2 508.705 294.8 508.705C303.4 508.705 310 510.855 314.6 515.155C319.2 519.355 321.5 525.505 321.5 533.605ZM215 499.245L215 474.795C215 466.295 217 460.095 221 456.195C224.9 452.295 230.95 450.345 239.15 450.345L245.6 450.345C256.5 450.345 263.4 453.945 266.3 461.145L266.6 461.145C267.8 457.145 270.25 454.345 273.95 452.745C277.65 451.045 282.6 450.195 288.8 450.195L307.25 450.195C310.25 450.195 312.7 450.095 314.6 449.895C316.4 449.695 318.2 449.195 320 448.395L320 465.195C318.3 465.795 316.7 466.195 315.2 466.395C313.7 466.595 311 466.695 307.1 466.695L287.9 466.695C283.1 466.695 279.75 467.495 277.85 469.095C275.95 470.595 275 473.245 275 477.045L275 482.745L320 482.745L320 499.245L215 499.245ZM260 476.745C260 473.445 259.15 470.995 257.45 469.395C255.75 467.695 252.9 466.845 248.9 466.845L240.8 466.845C237 466.845 234.25 467.545 232.55 468.945C230.85 470.245 230 472.345 230 475.245L230 482.745L260 482.745L260 476.745ZM321.5 415.496C321.5 423.396 319.25 429.446 314.75 433.646C310.25 437.746 303.9 439.796 295.7 439.796L239.3 439.796C231.1 439.796 224.75 437.746 220.25 433.646C215.75 429.446 213.5 423.396 213.5 415.496C213.5 407.596 215.75 401.596 220.25 397.496C224.75 393.296 231.1 391.196 239.3 391.196L250.4 391.196L250.4 406.796L238.25 406.796C231.75 406.796 228.5 409.546 228.5 415.046C228.5 420.546 231.75 423.296 238.25 423.296L296.9 423.296C303.3 423.296 306.5 420.546 306.5 415.046C306.5 409.546 303.3 406.796 296.9 406.796L280.85 406.796L280.85 391.196L295.7 391.196C303.9 391.196 310.25 393.296 314.75 397.496C319.25 401.596 321.5 407.596 321.5 415.496ZM215 381.325L215 336.325L230 336.325L230 364.825L257.75 364.825L257.75 342.175L272.75 342.175L272.75 364.825L305 364.825L305 336.325L320 336.325L320 381.325L215 381.325ZM230 289.909L230 307.159L215 307.159L215 256.159L230 256.159L230 273.409L320 273.409L320 289.909L230 289.909ZM215 242.305L215 219.955L320 202.855L320 219.355L299.15 222.355L299.45 222.355L299.45 241.105L320 244.105L320 259.405L215 242.305ZM285.2 224.305L233.3 231.655L233.3 231.955L285.2 239.155L285.2 224.305ZM215 194.85L215 171.3L290.15 160.8L290.15 160.5L215 150L215 126.45L320 126.45L320 142.05L240.5 142.05L240.5 142.35L320 154.35L320 168.15L240.5 180.15L240.5 180.45L320 180.45L320 194.85L215 194.85ZM215 114.137L215 69.1371L230 69.1371L230 97.6371L257.75 97.6371L257.75 74.9871L272.75 74.9871L272.75 97.6371L305 97.6371L305 69.1371L320 69.1371L320 114.137L215 114.137Z" fill="white"/>
</g>
<defs>
<linearGradient id="paint0_linear_511_83" x1="1096.54" y1="65.2637" x2="1690.51" y2="65.2637" gradientUnits="userSpaceOnUse">
<stop stop-color="#1363DF"/>
<stop offset="1" stop-color="#47B5FF"/>
</linearGradient>
<linearGradient id="paint1_linear_511_83" x1="1060.94" y1="40.2637" x2="1605.41" y2="40.2637" gradientUnits="userSpaceOnUse">
<stop stop-color="#1363DF"/>
<stop offset="1" stop-color="#47B5FF"/>
</linearGradient>
<linearGradient id="paint2_linear_511_83" x1="1025.33" y1="15.2637" x2="1520.3" y2="15.2637" gradientUnits="userSpaceOnUse">
<stop stop-color="#1363DF"/>
<stop offset="1" stop-color="#47B5FF"/>
</linearGradient>
<linearGradient id="paint3_linear_511_83" x1="954.117" y1="-34.7363" x2="1350.1" y2="-34.7363" gradientUnits="userSpaceOnUse">
<stop stop-color="#1363DF"/>
<stop offset="1" stop-color="#47B5FF"/>
</linearGradient>
<linearGradient id="paint4_linear_511_83" x1="989.723" y1="-9.73633" x2="1435.2" y2="-9.73633" gradientUnits="userSpaceOnUse">
<stop stop-color="#1363DF"/>
<stop offset="1" stop-color="#47B5FF"/>
</linearGradient>
<linearGradient id="paint5_linear_511_83" x1="918.51" y1="-59.7363" x2="1264.99" y2="-59.7363" gradientUnits="userSpaceOnUse">
<stop stop-color="#1363DF"/>
<stop offset="1" stop-color="#47B5FF"/>
</linearGradient>
<linearGradient id="paint6_linear_511_83" x1="-358.985" y1="538.264" x2="234.985" y2="538.264" gradientUnits="userSpaceOnUse">
<stop stop-color="#1363DF"/>
<stop offset="1" stop-color="#47B5FF"/>
</linearGradient>
<linearGradient id="paint7_linear_511_83" x1="-323.881" y1="513.264" x2="220.592" y2="513.264" gradientUnits="userSpaceOnUse">
<stop stop-color="#1363DF"/>
<stop offset="1" stop-color="#47B5FF"/>
</linearGradient>
<linearGradient id="paint8_linear_511_83" x1="-288.777" y1="488.264" x2="206.198" y2="488.264" gradientUnits="userSpaceOnUse">
<stop stop-color="#1363DF"/>
<stop offset="1" stop-color="#47B5FF"/>
</linearGradient>
<linearGradient id="paint9_linear_511_83" x1="-218.569" y1="438.264" x2="177.411" y2="438.264" gradientUnits="userSpaceOnUse">
<stop stop-color="#1363DF"/>
<stop offset="1" stop-color="#47B5FF"/>
</linearGradient>
<linearGradient id="paint10_linear_511_83" x1="-253.673" y1="463.264" x2="191.805" y2="463.264" gradientUnits="userSpaceOnUse">
<stop stop-color="#1363DF"/>
<stop offset="1" stop-color="#47B5FF"/>
</linearGradient>
<linearGradient id="paint11_linear_511_83" x1="-183.464" y1="413.264" x2="163.018" y2="413.264" gradientUnits="userSpaceOnUse">
<stop stop-color="#1363DF"/>
<stop offset="1" stop-color="#47B5FF"/>
</linearGradient>
<clipPath id="clip0_511_83">
<rect width="1200" height="627" fill="white"/>
</clipPath>
</defs>
</svg>
