<svg width="1200" height="630" viewBox="0 0 1200 630" fill="none" xmlns="http://www.w3.org/2000/svg">
<g clip-path="url(#clip0_511_83)">
<rect width="1200" height="630" fill="#252525"/>
<rect width="601.437" height="601.437" transform="matrix(0.705417 -0.708792 0.705417 0.708792 512 568.973)" fill="#DFF6FF" fill-opacity="0.25"/>
<ellipse cx="1216.5" cy="-30.6465" rx="233.5" ry="234.617" fill="#DFF6FF"/>
<path d="M475 -17.082L345 113.54H475L475 -17.082Z" fill="#5B6164"/>
<path d="M475 113.539L345 244.161H475L475 113.539Z" fill="#5B6164"/>
<path d="M345 -17.082L215 113.54H345L345 -17.082Z" fill="#5B6164"/>
<path d="M215 -17.082L85 113.54H215L215 -17.082Z" fill="#5B6164"/>
<path d="M345 113.539L215 244.161H345L345 113.539Z" fill="#5B6164"/>
<path d="M215 113.539L85 244.161H215L215 113.539Z" fill="#5B6164"/>
<rect x="-2.82167" width="597.437" height="597.437" transform="matrix(-0.705417 0.708792 -0.705417 -0.708792 1088.72 -233.859)" stroke="url(#paint0_linear_511_83)" stroke-width="4"/>
<rect x="-2.82167" width="547.317" height="547.317" transform="matrix(-0.705417 0.708792 -0.705417 -0.708792 1053.36 -233.859)" stroke="url(#paint1_linear_511_83)" stroke-width="4"/>
<rect x="-2.82167" width="497.198" height="497.198" transform="matrix(-0.705417 0.708792 -0.705417 -0.708792 1018.01 -233.859)" stroke="url(#paint2_linear_511_83)" stroke-width="4"/>
<rect x="-2.82167" width="396.958" height="396.958" transform="matrix(-0.705417 0.708792 -0.705417 -0.708792 947.295 -233.859)" stroke="url(#paint3_linear_511_83)" stroke-width="4"/>
<rect x="-2.82167" width="447.078" height="447.078" transform="matrix(-0.705417 0.708792 -0.705417 -0.708792 982.65 -233.859)" stroke="url(#paint4_linear_511_83)" stroke-width="4"/>
<rect x="-2.82167" width="346.838" height="346.838" transform="matrix(-0.705417 0.708792 -0.705417 -0.708792 911.939 -233.859)" stroke="url(#paint5_linear_511_83)" stroke-width="4"/>
<rect width="10.024" height="10.024" transform="matrix(0.705417 -0.708792 0.705417 0.708792 398 422.082)" fill="#DFF6FF"/>
<rect width="10.024" height="10.024" transform="matrix(0.705417 -0.708792 0.705417 0.708792 398 472.32)" fill="#DFF6FF"/>
<rect width="10.024" height="10.024" transform="matrix(0.705417 -0.708792 0.705417 0.708792 398 522.561)" fill="#DFF6FF"/>
<rect width="10.024" height="10.024" transform="matrix(0.705417 -0.708792 0.705417 0.708792 448 422.082)" fill="#DFF6FF"/>
<rect width="10.024" height="10.024" transform="matrix(0.705417 -0.708792 0.705417 0.708792 448 472.32)" fill="#DFF6FF"/>
<rect width="10.024" height="10.024" transform="matrix(0.705417 -0.708792 0.705417 0.708792 448 522.561)" fill="#DFF6FF"/>
<rect width="10.024" height="10.024" transform="matrix(0.705417 -0.708792 0.705417 0.708792 498 422.082)" fill="#DFF6FF"/>
<rect width="10.024" height="10.024" transform="matrix(0.705417 -0.708792 0.705417 0.708792 498 472.32)" fill="#DFF6FF"/>
<rect width="10.024" height="10.024" transform="matrix(0.705417 -0.708792 0.705417 0.708792 498 522.561)" fill="#DFF6FF"/>
<rect width="10.024" height="10.024" transform="matrix(0.705417 -0.708792 0.705417 0.708792 548 422.082)" fill="#DFF6FF"/>
<rect width="10.024" height="10.024" transform="matrix(0.705417 -0.708792 0.705417 0.708792 548 472.32)" fill="#DFF6FF"/>
<rect width="10.024" height="10.024" transform="matrix(0.705417 -0.708792 0.705417 0.708792 548 522.561)" fill="#DFF6FF"/>
<rect width="10.024" height="10.024" transform="matrix(0.705417 -0.708792 0.705417 0.708792 598 422.082)" fill="#DFF6FF"/>
<rect width="10.024" height="10.024" transform="matrix(0.705417 -0.708792 0.705417 0.708792 598 472.32)" fill="#DFF6FF"/>
<rect width="10.024" height="10.024" transform="matrix(0.705417 -0.708792 0.705417 0.708792 598 522.561)" fill="#DFF6FF"/>
<rect x="2.82167" width="597.437" height="597.437" transform="matrix(0.705417 -0.708792 0.705417 0.708792 -361.169 241.404)" stroke="url(#paint6_linear_511_83)" stroke-width="4"/>
<rect x="2.82167" width="547.317" height="547.317" transform="matrix(0.705417 -0.708792 0.705417 0.708792 -325.813 241.404)" stroke="url(#paint7_linear_511_83)" stroke-width="4"/>
<rect x="2.82167" width="497.198" height="497.198" transform="matrix(0.705417 -0.708792 0.705417 0.708792 -290.458 241.404)" stroke="url(#paint8_linear_511_83)" stroke-width="4"/>
<rect x="2.82167" width="396.958" height="396.958" transform="matrix(0.705417 -0.708792 0.705417 0.708792 -219.747 241.404)" stroke="url(#paint9_linear_511_83)" stroke-width="4"/>
<rect x="2.82167" width="447.078" height="447.078" transform="matrix(0.705417 -0.708792 0.705417 0.708792 -255.103 241.404)" stroke="url(#paint10_linear_511_83)" stroke-width="4"/>
<rect x="2.82167" width="346.838" height="346.838" transform="matrix(0.705417 -0.708792 0.705417 0.708792 -184.392 241.404)" stroke="url(#paint11_linear_511_83)" stroke-width="4"/>
<path fill-rule="evenodd" clip-rule="evenodd" d="M1000 394.881C1000 422.627 977.614 445.12 950 445.12C977.614 445.12 1000 467.613 1000 495.359C1000 467.613 1022.39 445.12 1050 445.12C1022.39 445.12 1000 422.627 1000 394.881Z" fill="#1363DF"/>
<path fill-rule="evenodd" clip-rule="evenodd" d="M1000 515.455C1000 543.201 977.614 565.694 950 565.694C977.614 565.694 1000 588.187 1000 615.934C1000 588.187 1022.39 565.694 1050 565.694C1022.39 565.694 1000 543.201 1000 515.455Z" fill="#1363DF"/>
<path fill-rule="evenodd" clip-rule="evenodd" d="M1000 274.307C1000 302.053 977.614 324.546 950 324.546C977.614 324.546 1000 347.039 1000 374.785C1000 347.039 1022.39 324.546 1050 324.546C1022.39 324.546 1000 302.053 1000 274.307Z" fill="#1363DF"/>
<rect x="1200" y="630" width="1200" height="630" transform="rotate(-180 1200 630)" fill="black" fill-opacity="0.65"/>
<path d="M850 265L800 65L750 265L550 315L750 365L800 565L850 365L1050 315L850 265Z" fill="white"/>
<path d="M321.5 535.105C321.5 543.105 319.25 549.155 314.75 553.255C310.15 557.355 303.6 559.405 295.1 559.405L289.1 559.405L289.1 543.805L296.3 543.805C303.1 543.805 306.5 540.955 306.5 535.255C306.5 532.455 305.7 530.355 304.1 528.955C302.4 527.455 299.7 526.705 296 526.705C291.6 526.705 287.75 527.705 284.45 529.705C281.05 531.705 277 535.405 272.3 540.805C266.3 547.605 260.9 552.355 256.1 555.055C251.2 557.755 245.7 559.105 239.6 559.105C231.3 559.105 224.9 557.005 220.4 552.805C215.8 548.605 213.5 542.505 213.5 534.505C213.5 526.605 215.8 520.655 220.4 516.655C224.9 512.555 231.4 510.505 239.9 510.505L244.25 510.505L244.25 526.105L238.85 526.105C235.25 526.105 232.65 526.805 231.05 528.205C229.35 529.605 228.5 531.655 228.5 534.355C228.5 539.855 231.85 542.605 238.55 542.605C242.35 542.605 245.9 541.605 249.2 539.605C252.5 537.505 256.5 533.755 261.2 528.355C267.2 521.455 272.65 516.705 277.55 514.105C282.45 511.505 288.2 510.205 294.8 510.205C303.4 510.205 310 512.355 314.6 516.655C319.2 520.855 321.5 527.005 321.5 535.105ZM215 500.745L215 476.295C215 467.795 217 461.595 221 457.695C224.9 453.795 230.95 451.845 239.15 451.845L245.6 451.845C256.5 451.845 263.4 455.445 266.3 462.645L266.6 462.645C267.8 458.645 270.25 455.845 273.95 454.245C277.65 452.545 282.6 451.695 288.8 451.695L307.25 451.695C310.25 451.695 312.7 451.595 314.6 451.395C316.4 451.195 318.2 450.695 320 449.895L320 466.695C318.3 467.295 316.7 467.695 315.2 467.895C313.7 468.095 311 468.195 307.1 468.195L287.9 468.195C283.1 468.195 279.75 468.995 277.85 470.595C275.95 472.095 275 474.745 275 478.545L275 484.245L320 484.245L320 500.745L215 500.745ZM260 478.245C260 474.945 259.15 472.495 257.45 470.895C255.75 469.195 252.9 468.345 248.9 468.345L240.8 468.345C237 468.345 234.25 469.045 232.55 470.445C230.85 471.745 230 473.845 230 476.745L230 484.245L260 484.245L260 478.245ZM321.5 416.996C321.5 424.896 319.25 430.946 314.75 435.146C310.25 439.246 303.9 441.296 295.7 441.296L239.3 441.296C231.1 441.296 224.75 439.246 220.25 435.146C215.75 430.946 213.5 424.896 213.5 416.996C213.5 409.096 215.75 403.096 220.25 398.996C224.75 394.796 231.1 392.696 239.3 392.696L250.4 392.696L250.4 408.296L238.25 408.296C231.75 408.296 228.5 411.046 228.5 416.546C228.5 422.046 231.75 424.796 238.25 424.796L296.9 424.796C303.3 424.796 306.5 422.046 306.5 416.546C306.5 411.046 303.3 408.296 296.9 408.296L280.85 408.296L280.85 392.696L295.7 392.696C303.9 392.696 310.25 394.796 314.75 398.996C319.25 403.096 321.5 409.096 321.5 416.996ZM215 382.825L215 337.825L230 337.825L230 366.325L257.75 366.325L257.75 343.675L272.75 343.675L272.75 366.325L305 366.325L305 337.825L320 337.825L320 382.825L215 382.825ZM230 291.409L230 308.659L215 308.659L215 257.659L230 257.659L230 274.909L320 274.909L320 291.409L230 291.409ZM215 243.805L215 221.455L320 204.355L320 220.855L299.15 223.855L299.45 223.855L299.45 242.605L320 245.605L320 260.905L215 243.805ZM285.2 225.805L233.3 233.155L233.3 233.455L285.2 240.655L285.2 225.805ZM215 196.35L215 172.8L290.15 162.3L290.15 162L215 151.5L215 127.95L320 127.95L320 143.55L240.5 143.55L240.5 143.85L320 155.85L320 169.65L240.5 181.65L240.5 181.95L320 181.95L320 196.35L215 196.35ZM215 115.637L215 70.6371L230 70.6371L230 99.1371L257.75 99.1371L257.75 76.4871L272.75 76.4871L272.75 99.1371L305 99.1371L305 70.6371L320 70.6371L320 115.637L215 115.637Z" fill="white"/>
</g>
<defs>
<linearGradient id="paint0_linear_511_83" x1="3.02229" y1="300.719" x2="598.415" y2="300.719" gradientUnits="userSpaceOnUse">
<stop stop-color="#1363DF"/>
<stop offset="1" stop-color="#47B5FF"/>
</linearGradient>
<linearGradient id="paint1_linear_511_83" x1="2.77044" y1="275.659" x2="548.547" y2="275.659" gradientUnits="userSpaceOnUse">
<stop stop-color="#1363DF"/>
<stop offset="1" stop-color="#47B5FF"/>
</linearGradient>
<linearGradient id="paint2_linear_511_83" x1="2.51858" y1="250.599" x2="498.679" y2="250.599" gradientUnits="userSpaceOnUse">
<stop stop-color="#1363DF"/>
<stop offset="1" stop-color="#47B5FF"/>
</linearGradient>
<linearGradient id="paint3_linear_511_83" x1="2.01486" y1="200.479" x2="398.943" y2="200.479" gradientUnits="userSpaceOnUse">
<stop stop-color="#1363DF"/>
<stop offset="1" stop-color="#47B5FF"/>
</linearGradient>
<linearGradient id="paint4_linear_511_83" x1="2.26672" y1="225.539" x2="448.811" y2="225.539" gradientUnits="userSpaceOnUse">
<stop stop-color="#1363DF"/>
<stop offset="1" stop-color="#47B5FF"/>
</linearGradient>
<linearGradient id="paint5_linear_511_83" x1="1.763" y1="175.419" x2="349.075" y2="175.419" gradientUnits="userSpaceOnUse">
<stop stop-color="#1363DF"/>
<stop offset="1" stop-color="#47B5FF"/>
</linearGradient>
<linearGradient id="paint6_linear_511_83" x1="3.02229" y1="300.719" x2="598.415" y2="300.719" gradientUnits="userSpaceOnUse">
<stop stop-color="#1363DF"/>
<stop offset="1" stop-color="#47B5FF"/>
</linearGradient>
<linearGradient id="paint7_linear_511_83" x1="2.77044" y1="275.659" x2="548.547" y2="275.659" gradientUnits="userSpaceOnUse">
<stop stop-color="#1363DF"/>
<stop offset="1" stop-color="#47B5FF"/>
</linearGradient>
<linearGradient id="paint8_linear_511_83" x1="2.51858" y1="250.599" x2="498.679" y2="250.599" gradientUnits="userSpaceOnUse">
<stop stop-color="#1363DF"/>
<stop offset="1" stop-color="#47B5FF"/>
</linearGradient>
<linearGradient id="paint9_linear_511_83" x1="2.01486" y1="200.479" x2="398.943" y2="200.479" gradientUnits="userSpaceOnUse">
<stop stop-color="#1363DF"/>
<stop offset="1" stop-color="#47B5FF"/>
</linearGradient>
<linearGradient id="paint10_linear_511_83" x1="2.26672" y1="225.539" x2="448.811" y2="225.539" gradientUnits="userSpaceOnUse">
<stop stop-color="#1363DF"/>
<stop offset="1" stop-color="#47B5FF"/>
</linearGradient>
<linearGradient id="paint11_linear_511_83" x1="1.763" y1="175.419" x2="349.075" y2="175.419" gradientUnits="userSpaceOnUse">
<stop stop-color="#1363DF"/>
<stop offset="1" stop-color="#47B5FF"/>
</linearGradient>
<clipPath id="clip0_511_83">
<rect width="1200" height="630" fill="white"/>
</clipPath>
</defs>
</svg>
