<?xml version="1.0" encoding="UTF-8"?>
<svg id="Layer_2" data-name="Layer 2" xmlns="http://www.w3.org/2000/svg" xmlns:xlink="http://www.w3.org/1999/xlink" viewBox="0 0 5000 2625">
  <defs>
    <style>
      .cls-1 {
        stroke: url(#linear-gradient-41);
      }

      .cls-1, .cls-2, .cls-3, .cls-4, .cls-5, .cls-6, .cls-7, .cls-8, .cls-9, .cls-10, .cls-11, .cls-12, .cls-13, .cls-14, .cls-15, .cls-16, .cls-17, .cls-18, .cls-19, .cls-20, .cls-21, .cls-22, .cls-23, .cls-24, .cls-25, .cls-26, .cls-27, .cls-28, .cls-29, .cls-30, .cls-31, .cls-32, .cls-33, .cls-34, .cls-35, .cls-36, .cls-37 {
        fill: none;
      }

      .cls-1, .cls-2, .cls-3, .cls-4, .cls-5, .cls-6, .cls-7, .cls-8, .cls-9, .cls-10, .cls-11, .cls-13, .cls-14, .cls-15, .cls-16, .cls-17, .cls-18, .cls-19, .cls-20, .cls-21, .cls-22, .cls-23, .cls-24, .cls-25, .cls-26, .cls-27, .cls-28, .cls-29, .cls-30, .cls-31, .cls-32, .cls-33, .cls-34, .cls-35, .cls-36, .cls-37 {
        stroke-miterlimit: 4;
        stroke-width: 4px;
      }

      .cls-2 {
        stroke: url(#linear-gradient-3);
      }

      .cls-38 {
        fill: url(#linear-gradient-33);
      }

      .cls-38, .cls-39, .cls-40, .cls-12, .cls-41, .cls-42, .cls-43, .cls-44, .cls-45, .cls-46, .cls-47, .cls-48, .cls-49, .cls-50, .cls-51, .cls-52, .cls-53, .cls-54 {
        stroke-width: 0px;
      }

      .cls-3 {
        stroke: url(#linear-gradient);
      }

      .cls-39 {
        fill: #5b6164;
      }

      .cls-4 {
        stroke: url(#linear-gradient-40);
      }

      .cls-5 {
        stroke: url(#linear-gradient-12);
      }

      .cls-6 {
        stroke: url(#linear-gradient-8);
      }

      .cls-40 {
        fill: rgba(223, 246, 255, .25);
      }

      .cls-7 {
        stroke: url(#linear-gradient-23);
      }

      .cls-8 {
        stroke: url(#linear-gradient-39);
      }

      .cls-9 {
        stroke: url(#linear-gradient-45);
      }

      .cls-10 {
        stroke: url(#linear-gradient-10);
      }

      .cls-11 {
        stroke: url(#linear-gradient-46);
      }

      .cls-13 {
        stroke: url(#linear-gradient-17);
      }

      .cls-41 {
        fill: url(#linear-gradient-31);
      }

      .cls-14 {
        stroke: url(#linear-gradient-14);
      }

      .cls-42 {
        fill: url(#linear-gradient-34);
      }

      .cls-15 {
        stroke: url(#linear-gradient-2);
      }

      .cls-16 {
        stroke: url(#linear-gradient-5);
      }

      .cls-43 {
        fill: url(#linear-gradient-25);
      }

      .cls-17 {
        stroke: url(#linear-gradient-48);
      }

      .cls-18 {
        stroke: url(#linear-gradient-21);
      }

      .cls-44 {
        fill: url(#linear-gradient-35);
      }

      .cls-19 {
        stroke: url(#linear-gradient-42);
      }

      .cls-20 {
        stroke: url(#linear-gradient-15);
      }

      .cls-45 {
        fill: url(#linear-gradient-32);
      }

      .cls-46 {
        fill-rule: evenodd;
      }

      .cls-46, .cls-52 {
        fill: #1363df;
      }

      .cls-21 {
        stroke: url(#linear-gradient-9);
      }

      .cls-22 {
        stroke: url(#linear-gradient-11);
      }

      .cls-23 {
        stroke: url(#linear-gradient-44);
      }

      .cls-55 {
        clip-path: url(#clippath);
      }

      .cls-24 {
        stroke: url(#linear-gradient-18);
      }

      .cls-25 {
        stroke: url(#linear-gradient-37);
      }

      .cls-26 {
        stroke: url(#linear-gradient-16);
      }

      .cls-47 {
        fill: url(#linear-gradient-27);
      }

      .cls-48 {
        fill: url(#linear-gradient-36);
      }

      .cls-49 {
        fill: url(#linear-gradient-26);
      }

      .cls-27 {
        stroke: url(#linear-gradient-22);
      }

      .cls-50 {
        fill: url(#linear-gradient-30);
      }

      .cls-28 {
        stroke: url(#linear-gradient-20);
      }

      .cls-51 {
        fill: url(#linear-gradient-29);
      }

      .cls-29 {
        stroke: url(#linear-gradient-24);
      }

      .cls-53 {
        fill: url(#linear-gradient-28);
      }

      .cls-30 {
        stroke: url(#linear-gradient-19);
      }

      .cls-31 {
        stroke: url(#linear-gradient-38);
      }

      .cls-32 {
        stroke: url(#linear-gradient-7);
      }

      .cls-33 {
        stroke: url(#linear-gradient-6);
      }

      .cls-34 {
        stroke: url(#linear-gradient-47);
      }

      .cls-54 {
        fill: #dff6ff;
      }

      .cls-35 {
        stroke: url(#linear-gradient-43);
      }

      .cls-36 {
        stroke: url(#linear-gradient-13);
      }

      .cls-37 {
        stroke: url(#linear-gradient-4);
      }
    </style>
    <clipPath id="clippath">
      <rect class="cls-12" width="5000" height="2625"/>
    </clipPath>
    <linearGradient id="linear-gradient" x1="3428.83" y1="-2998.61" x2="4022.8" y2="-2998.61" gradientTransform="translate(717.34 -1702.77) scale(1 -1)" gradientUnits="userSpaceOnUse">
      <stop offset="0" stop-color="#1363df"/>
      <stop offset="1" stop-color="#47b5ff"/>
    </linearGradient>
    <linearGradient id="linear-gradient-2" x1="3463.93" y1="-2973.61" x2="4008.41" y2="-2973.61" gradientTransform="translate(706.98 -1677.77) scale(1 -1)" xlink:href="#linear-gradient"/>
    <linearGradient id="linear-gradient-3" x1="3499.04" y1="-2948.61" x2="3994.02" y2="-2948.61" gradientTransform="translate(696.63 -1652.77) scale(1 -1)" xlink:href="#linear-gradient"/>
    <linearGradient id="linear-gradient-4" x1="3569.25" y1="-2898.61" x2="3965.23" y2="-2898.61" gradientTransform="translate(675.91 -1602.77) scale(1 -1)" xlink:href="#linear-gradient"/>
    <linearGradient id="linear-gradient-5" x1="3534.14" y1="-2923.61" x2="3979.62" y2="-2923.61" gradientTransform="translate(686.27 -1627.77) scale(1 -1)" xlink:href="#linear-gradient"/>
    <linearGradient id="linear-gradient-6" x1="3604.35" y1="-2873.61" x2="3950.83" y2="-2873.61" gradientTransform="translate(665.56 -1577.77) scale(1 -1)" xlink:href="#linear-gradient"/>
    <linearGradient id="linear-gradient-7" x1="2123.8" y1="-3526.59" x2="2717.77" y2="-3526.59" gradientTransform="translate(691.62 -1596.82) scale(1 -1)" xlink:href="#linear-gradient"/>
    <linearGradient id="linear-gradient-8" x1="2158.91" y1="-3501.59" x2="2703.38" y2="-3501.59" gradientTransform="translate(681.27 -1571.82) scale(1 -1)" xlink:href="#linear-gradient"/>
    <linearGradient id="linear-gradient-9" x1="2194.01" y1="-3476.59" x2="2688.99" y2="-3476.59" gradientTransform="translate(670.91 -1546.82) scale(1 -1)" xlink:href="#linear-gradient"/>
    <linearGradient id="linear-gradient-10" x1="2264.22" y1="-3426.59" x2="2660.2" y2="-3426.59" gradientTransform="translate(650.2 -1496.82) scale(1 -1)" xlink:href="#linear-gradient"/>
    <linearGradient id="linear-gradient-11" x1="2229.11" y1="-3451.59" x2="2674.59" y2="-3451.59" gradientTransform="translate(660.56 -1521.82) scale(1 -1)" xlink:href="#linear-gradient"/>
    <linearGradient id="linear-gradient-12" x1="2299.32" y1="-3401.59" x2="2645.8" y2="-3401.59" gradientTransform="translate(639.85 -1471.82) scale(1 -1)" xlink:href="#linear-gradient"/>
    <linearGradient id="linear-gradient-13" x1="975.85" y1="-1148.86" x2="1389.94" y2="-1148.86" gradientTransform="translate(-627.05 -24.9) scale(1 -1)" xlink:href="#linear-gradient"/>
    <linearGradient id="linear-gradient-14" x1="1003.41" y1="-1123.86" x2="1383.09" y2="-1123.86" gradientTransform="translate(-637.4 .1) scale(1 -1)" xlink:href="#linear-gradient"/>
    <linearGradient id="linear-gradient-15" x1="1030.97" y1="-1098.86" x2="1376.25" y2="-1098.86" gradientTransform="translate(-647.76 25.1) scale(1 -1)" xlink:href="#linear-gradient"/>
    <linearGradient id="linear-gradient-16" x1="1086.08" y1="-1048.86" x2="1362.55" y2="-1048.86" gradientTransform="translate(-668.47 75.1) scale(1 -1)" xlink:href="#linear-gradient"/>
    <linearGradient id="linear-gradient-17" x1="1058.52" y1="-1073.86" x2="1369.4" y2="-1073.86" gradientTransform="translate(-658.11 50.1) scale(1 -1)" xlink:href="#linear-gradient"/>
    <linearGradient id="linear-gradient-18" x1="1113.64" y1="-1023.86" x2="1355.7" y2="-1023.86" gradientTransform="translate(-678.82 100.1) scale(1 -1)" xlink:href="#linear-gradient"/>
    <linearGradient id="linear-gradient-19" x1="369.77" y1="-1544.21" x2="963.74" y2="-1544.21" gradientTransform="translate(692.71 -1470.5) scale(1 -1)" xlink:href="#linear-gradient"/>
    <linearGradient id="linear-gradient-20" x1="404.87" y1="-1519.21" x2="949.35" y2="-1519.21" gradientTransform="translate(682.35 -1445.5) scale(1 -1)" xlink:href="#linear-gradient"/>
    <linearGradient id="linear-gradient-21" x1="439.98" y1="-1494.21" x2="934.96" y2="-1494.21" gradientTransform="translate(672 -1420.5) scale(1 -1)" xlink:href="#linear-gradient"/>
    <linearGradient id="linear-gradient-22" x1="510.19" y1="-1444.21" x2="906.17" y2="-1444.21" gradientTransform="translate(651.29 -1370.5) scale(1 -1)" xlink:href="#linear-gradient"/>
    <linearGradient id="linear-gradient-23" x1="475.08" y1="-1469.21" x2="920.56" y2="-1469.21" gradientTransform="translate(661.64 -1395.5) scale(1 -1)" xlink:href="#linear-gradient"/>
    <linearGradient id="linear-gradient-24" x1="545.29" y1="-1419.21" x2="891.77" y2="-1419.21" gradientTransform="translate(640.93 -1345.5) scale(1 -1)" xlink:href="#linear-gradient"/>
    <linearGradient id="linear-gradient-25" x1="1675.75" y1="-4760.86" x2="1740.75" y2="-4695.86" gradientTransform="translate(0 -4329.26) scale(1 -1)" xlink:href="#linear-gradient"/>
    <linearGradient id="linear-gradient-26" x1="1675.75" y1="-4890.87" x2="1740.75" y2="-4825.86" gradientTransform="translate(0 -4329.26) scale(1 -1)" xlink:href="#linear-gradient"/>
    <linearGradient id="linear-gradient-27" x1="1805.75" y1="-4760.86" x2="1870.75" y2="-4695.86" gradientTransform="translate(0 -4329.26) scale(1 -1)" xlink:href="#linear-gradient"/>
    <linearGradient id="linear-gradient-28" x1="1805.75" y1="-4890.87" x2="1870.75" y2="-4825.86" gradientTransform="translate(0 -4329.26) scale(1 -1)" xlink:href="#linear-gradient"/>
    <linearGradient id="linear-gradient-29" x1="3337.55" y1="-5691.35" x2="3433.8" y2="-5595.1" gradientTransform="translate(0 -4329.26) scale(1 -1)" xlink:href="#linear-gradient"/>
    <linearGradient id="linear-gradient-30" x1="3337.55" y1="-5883.85" x2="3433.8" y2="-5787.6" gradientTransform="translate(0 -4329.26) scale(1 -1)" xlink:href="#linear-gradient"/>
    <linearGradient id="linear-gradient-31" x1="3530.05" y1="-5691.35" x2="3626.3" y2="-5595.1" gradientTransform="translate(0 -4329.26) scale(1 -1)" xlink:href="#linear-gradient"/>
    <linearGradient id="linear-gradient-32" x1="3530.05" y1="-5883.85" x2="3626.3" y2="-5787.6" gradientTransform="translate(0 -4329.26) scale(1 -1)" xlink:href="#linear-gradient"/>
    <linearGradient id="linear-gradient-33" x1="632.3" y1="-6134.75" x2="728.55" y2="-6038.5" gradientTransform="translate(0 -4329.26) scale(1 -1)" xlink:href="#linear-gradient"/>
    <linearGradient id="linear-gradient-34" x1="632.3" y1="-6327.25" x2="728.55" y2="-6231" gradientTransform="translate(0 -4329.26) scale(1 -1)" xlink:href="#linear-gradient"/>
    <linearGradient id="linear-gradient-35" x1="824.8" y1="-6134.75" x2="921.05" y2="-6038.5" gradientTransform="translate(0 -4329.26) scale(1 -1)" xlink:href="#linear-gradient"/>
    <linearGradient id="linear-gradient-36" x1="824.8" y1="-6327.25" x2="921.05" y2="-6231" gradientTransform="translate(0 -4329.26) scale(1 -1)" xlink:href="#linear-gradient"/>
    <linearGradient id="linear-gradient-37" x1="1154.74" y1="-2690.53" x2="1748.71" y2="-2690.53" gradientTransform="translate(647.82 -1550.46) scale(1 -1)" xlink:href="#linear-gradient"/>
    <linearGradient id="linear-gradient-38" x1="1189.85" y1="-2665.53" x2="1734.32" y2="-2665.53" gradientTransform="translate(637.46 -1525.46) scale(1 -1)" xlink:href="#linear-gradient"/>
    <linearGradient id="linear-gradient-39" x1="1224.95" y1="-2640.53" x2="1719.93" y2="-2640.53" gradientTransform="translate(627.1 -1500.46) scale(1 -1)" xlink:href="#linear-gradient"/>
    <linearGradient id="linear-gradient-40" x1="1295.16" y1="-2590.53" x2="1691.14" y2="-2590.53" gradientTransform="translate(606.39 -1450.46) scale(1 -1)" xlink:href="#linear-gradient"/>
    <linearGradient id="linear-gradient-41" x1="1260.06" y1="-2615.53" x2="1705.53" y2="-2615.53" gradientTransform="translate(616.75 -1475.46) scale(1 -1)" xlink:href="#linear-gradient"/>
    <linearGradient id="linear-gradient-42" x1="1330.26" y1="-2565.53" x2="1676.75" y2="-2565.53" gradientTransform="translate(596.04 -1425.46) scale(1 -1)" xlink:href="#linear-gradient"/>
    <linearGradient id="linear-gradient-43" x1="2220.51" y1="-2369.15" x2="2814.48" y2="-2369.15" gradientTransform="translate(738.02 -1595.92) scale(1 -1)" xlink:href="#linear-gradient"/>
    <linearGradient id="linear-gradient-44" x1="2255.62" y1="-2344.15" x2="2800.09" y2="-2344.15" gradientTransform="translate(727.66 -1570.92) scale(1 -1)" xlink:href="#linear-gradient"/>
    <linearGradient id="linear-gradient-45" x1="2290.72" y1="-2319.15" x2="2785.7" y2="-2319.15" gradientTransform="translate(717.31 -1545.92) scale(1 -1)" xlink:href="#linear-gradient"/>
    <linearGradient id="linear-gradient-46" x1="2360.93" y1="-2269.15" x2="2756.91" y2="-2269.15" gradientTransform="translate(696.6 -1495.92) scale(1 -1)" xlink:href="#linear-gradient"/>
    <linearGradient id="linear-gradient-47" x1="2325.82" y1="-2294.15" x2="2771.3" y2="-2294.15" gradientTransform="translate(706.95 -1520.92) scale(1 -1)" xlink:href="#linear-gradient"/>
    <linearGradient id="linear-gradient-48" x1="2396.03" y1="-2244.15" x2="2742.51" y2="-2244.15" gradientTransform="translate(686.24 -1470.92) scale(1 -1)" xlink:href="#linear-gradient"/>
  </defs>
  <g id="Layer_1-2" data-name="Layer 1">
    <g class="cls-55">
      <g>
        <rect class="cls-54" x="2561.92" y="1777.73" width="353.55" height="353.55" transform="translate(-579.9 2509.01) rotate(-45)"/>
        <circle class="cls-54" cx="4324.84" cy="2023.79" r="290.54"/>
        <circle class="cls-39" cx="350.12" cy="271.59" r="292.5"/>
        <g>
          <rect class="cls-3" x="4145.99" y="997.84" width="596" height="596" transform="translate(385.32 3521.91) rotate(-45)"/>
          <rect class="cls-15" x="4170.98" y="1022.84" width="546" height="546" transform="translate(385.32 3521.91) rotate(-45)"/>
          <rect class="cls-2" x="4195.99" y="1047.84" width="496" height="496" transform="translate(385.32 3521.91) rotate(-45)"/>
          <rect class="cls-37" x="4245.98" y="1097.84" width="396" height="396" transform="translate(385.32 3521.91) rotate(-45)"/>
          <rect class="cls-16" x="4220.98" y="1072.84" width="446" height="446" transform="translate(385.32 3521.91) rotate(-45)"/>
          <rect class="cls-33" x="4270.98" y="1122.84" width="346" height="346" transform="translate(385.32 3521.91) rotate(-45)"/>
        </g>
        <g>
          <rect class="cls-32" x="2815.24" y="1631.77" width="596" height="596" transform="translate(-452.71 2766.61) rotate(-45)"/>
          <rect class="cls-6" x="2840.23" y="1656.77" width="546" height="546" transform="translate(-452.71 2766.61) rotate(-45)"/>
          <rect class="cls-21" x="2865.24" y="1681.77" width="496" height="496" transform="translate(-452.71 2766.61) rotate(-45)"/>
          <rect class="cls-10" x="2915.24" y="1731.77" width="396" height="396" transform="translate(-452.71 2766.61) rotate(-45)"/>
          <rect class="cls-22" x="2890.23" y="1706.77" width="446" height="446" transform="translate(-452.71 2766.6) rotate(-45)"/>
          <rect class="cls-5" x="2940.23" y="1756.77" width="346" height="346" transform="translate(-452.71 2766.6) rotate(-45)"/>
        </g>
        <g>
          <rect class="cls-36" x="349.28" y="916.81" width="414.3" height="414.3" transform="translate(-631.78 722.65) rotate(-45)"/>
          <rect class="cls-14" x="366.65" y="934.18" width="379.54" height="379.54" transform="translate(-631.78 722.65) rotate(-45)"/>
          <rect class="cls-20" x="384.04" y="951.56" width="344.78" height="344.78" transform="translate(-631.78 722.65) rotate(-45)"/>
          <rect class="cls-26" x="418.79" y="986.32" width="275.27" height="275.27" transform="translate(-631.78 722.65) rotate(-45)"/>
          <rect class="cls-13" x="401.41" y="968.94" width="310.03" height="310.03" transform="translate(-631.78 722.65) rotate(-45)"/>
          <rect class="cls-24" x="436.17" y="1003.7" width="240.51" height="240.51" transform="translate(-631.78 722.65) rotate(-45)"/>
        </g>
        <g>
          <rect class="cls-30" x="1062.29" y="-224.29" width="596" height="596" transform="translate(346.3 983.46) rotate(-45)"/>
          <rect class="cls-28" x="1087.29" y="-199.29" width="546" height="546" transform="translate(346.3 983.46) rotate(-45)"/>
          <rect class="cls-18" x="1112.29" y="-174.29" width="496" height="496" transform="translate(346.3 983.46) rotate(-45)"/>
          <rect class="cls-27" x="1162.29" y="-124.29" width="396" height="396" transform="translate(346.3 983.46) rotate(-45)"/>
          <rect class="cls-7" x="1137.29" y="-149.29" width="446" height="446" transform="translate(346.29 983.46) rotate(-45)"/>
          <rect class="cls-29" x="1187.29" y="-99.29" width="346" height="346" transform="translate(346.29 983.46) rotate(-45)"/>
        </g>
        <rect class="cls-40" x="2368.59" y="897.86" width="600" height="600" transform="translate(-65.4 2237.83) rotate(-45)"/>
        <rect class="cls-40" x="2368.59" y="897.86" width="600" height="600" transform="translate(-65.4 2237.83) rotate(-45)"/>
        <rect class="cls-40" x="3617" y="1850" width="600" height="600" transform="translate(-373.02 3399.46) rotate(-45)"/>
        <rect class="cls-40" x="549.38" y="1589.41" width="600" height="600" transform="translate(-1087.24 1154) rotate(-45)"/>
        <rect class="cls-40" x="3932.72" y="352.28" width="872.38" height="872.38" transform="translate(722.09 3320.23) rotate(-45)"/>
        <rect class="cls-54" x="710.6" y="369.62" width="601.42" height="601.42" transform="translate(-177.79 911.44) rotate(-45)"/>
        <rect class="cls-54" x="111.27" y="2033.01" width="353.55" height="353.55" transform="translate(-1478.19 850.91) rotate(-45)"/>
        <path class="cls-39" d="m2217.61-1.4l-130,130h130V-1.4Z"/>
        <path class="cls-39" d="m2217.61,128.6l-130,130h130v-130Z"/>
        <path class="cls-39" d="m2087.61-1.4l-130,130h130V-1.4Z"/>
        <path class="cls-39" d="m1957.61-1.4l-130,130h130V-1.4Z"/>
        <path class="cls-39" d="m2087.61,128.6l-130,130h130v-130Z"/>
        <path class="cls-39" d="m1957.61,128.6l-130,130h130v-130Z"/>
        <circle class="cls-54" cx="2818.83" cy="989.1" r="137.5"/>
        <circle class="cls-39" cx="1479.98" cy="972.1" r="191.5"/>
        <circle class="cls-54" cx="4602.41" cy="496.6" r="140.79"/>
        <circle class="cls-54" cx="2123.62" cy="2397.53" r="191.5"/>
        <circle class="cls-54" cx="1737.5" cy="1579.05" r="414.37"/>
        <g>
          <rect class="cls-54" x="2308.74" y="803.6" width="10" height="10" transform="translate(105.91 1872.89) rotate(-45)"/>
          <rect class="cls-54" x="2308.74" y="853.6" width="10" height="10" transform="translate(70.56 1887.54) rotate(-45)"/>
          <rect class="cls-54" x="2308.74" y="903.6" width="10" height="10" transform="translate(35.2 1902.18) rotate(-45)"/>
          <rect class="cls-54" x="2358.74" y="803.6" width="10" height="10" transform="translate(120.56 1908.25) rotate(-45)"/>
          <rect class="cls-54" x="2358.74" y="853.6" width="10" height="10" transform="translate(85.2 1922.89) rotate(-45)"/>
          <rect class="cls-54" x="2358.74" y="903.6" width="10" height="10" transform="translate(49.84 1937.54) rotate(-45)"/>
          <rect class="cls-54" x="2408.74" y="803.6" width="10" height="10" transform="translate(135.2 1943.6) rotate(-45)"/>
          <rect class="cls-54" x="2408.74" y="853.6" width="10" height="10" transform="translate(99.84 1958.25) rotate(-45)"/>
          <rect class="cls-54" x="2408.74" y="903.6" width="10" height="10" transform="translate(64.49 1972.89) rotate(-45)"/>
          <rect class="cls-54" x="2458.74" y="803.6" width="10" height="10" transform="translate(149.84 1978.96) rotate(-45)"/>
          <rect class="cls-54" x="2458.74" y="853.6" width="10" height="10" transform="translate(114.49 1993.6) rotate(-45)"/>
          <rect class="cls-54" x="2458.74" y="903.6" width="10" height="10" transform="translate(79.13 2008.25) rotate(-45)"/>
          <rect class="cls-54" x="2508.74" y="803.6" width="10" height="10" transform="translate(164.49 2014.31) rotate(-45)"/>
          <rect class="cls-54" x="2508.74" y="853.6" width="10" height="10" transform="translate(129.13 2028.96) rotate(-45)"/>
          <rect class="cls-54" x="2508.74" y="903.6" width="10" height="10" transform="translate(93.78 2043.6) rotate(-45)"/>
        </g>
        <g>
          <rect class="cls-54" x="942.88" y="1228.18" width="15.33" height="15.33" transform="translate(-595.47 1034.11) rotate(-45)"/>
          <rect class="cls-54" x="942.88" y="1304.84" width="15.33" height="15.33" transform="translate(-649.67 1056.56) rotate(-45)"/>
          <rect class="cls-54" x="942.88" y="1381.49" width="15.33" height="15.33" transform="translate(-703.87 1079.01) rotate(-45)"/>
          <rect class="cls-54" x="1019.54" y="1228.18" width="15.33" height="15.33" transform="translate(-573.01 1088.32) rotate(-45)"/>
          <rect class="cls-54" x="1019.54" y="1304.84" width="15.33" height="15.33" transform="translate(-627.22 1110.77) rotate(-45)"/>
          <rect class="cls-54" x="1019.54" y="1381.49" width="15.33" height="15.33" transform="translate(-681.42 1133.22) rotate(-45)"/>
          <rect class="cls-54" x="1096.2" y="1228.18" width="15.33" height="15.33" transform="translate(-550.56 1142.52) rotate(-45)"/>
          <rect class="cls-54" x="1096.2" y="1304.84" width="15.33" height="15.33" transform="translate(-604.77 1164.98) rotate(-45)"/>
          <rect class="cls-54" x="1096.2" y="1381.49" width="15.33" height="15.33" transform="translate(-658.97 1187.43) rotate(-45)"/>
          <rect class="cls-54" x="1172.85" y="1228.18" width="15.33" height="15.33" transform="translate(-528.11 1196.72) rotate(-45)"/>
          <rect class="cls-54" x="1172.85" y="1304.84" width="15.33" height="15.33" transform="translate(-582.32 1219.18) rotate(-45)"/>
          <rect class="cls-54" x="1172.85" y="1381.49" width="15.33" height="15.33" transform="translate(-636.51 1241.63) rotate(-45)"/>
          <rect class="cls-54" x="1249.51" y="1228.18" width="15.33" height="15.33" transform="translate(-505.66 1250.93) rotate(-45)"/>
          <rect class="cls-54" x="1249.51" y="1304.84" width="15.33" height="15.33" transform="translate(-559.86 1273.38) rotate(-45)"/>
          <rect class="cls-54" x="1249.51" y="1381.49" width="15.33" height="15.33" transform="translate(-614.06 1295.83) rotate(-45)"/>
        </g>
        <g>
          <rect class="cls-52" x="1940.84" y="1763.39" width="18.3" height="18.3" transform="translate(-682.24 1898.02) rotate(-45)"/>
          <rect class="cls-52" x="1940.84" y="1873.2" width="18.3" height="18.3" transform="translate(-759.89 1930.18) rotate(-45)"/>
          <rect class="cls-52" x="1940.84" y="1983.02" width="18.3" height="18.3" transform="translate(-837.54 1962.35) rotate(-45)"/>
          <rect class="cls-52" x="2050.66" y="1763.39" width="18.3" height="18.3" transform="translate(-650.07 1975.67) rotate(-45)"/>
          <rect class="cls-52" x="2050.66" y="1873.2" width="18.3" height="18.3" transform="translate(-727.72 2007.83) rotate(-45)"/>
          <rect class="cls-52" x="2050.66" y="1983.02" width="18.3" height="18.3" transform="translate(-805.38 2040) rotate(-45)"/>
          <rect class="cls-52" x="2160.47" y="1763.39" width="18.3" height="18.3" transform="translate(-617.91 2053.32) rotate(-45)"/>
          <rect class="cls-52" x="2160.47" y="1873.2" width="18.3" height="18.3" transform="translate(-695.56 2085.48) rotate(-45)"/>
          <rect class="cls-52" x="2160.47" y="1983.02" width="18.3" height="18.3" transform="translate(-773.21 2117.65) rotate(-45)"/>
          <rect class="cls-52" x="2270.29" y="1763.39" width="18.3" height="18.3" transform="translate(-585.75 2130.97) rotate(-45)"/>
          <rect class="cls-52" x="2270.29" y="1873.2" width="18.3" height="18.3" transform="translate(-663.39 2163.14) rotate(-45)"/>
          <rect class="cls-52" x="2270.29" y="1983.02" width="18.3" height="18.3" transform="translate(-741.05 2195.3) rotate(-45)"/>
          <rect class="cls-52" x="2380.1" y="1763.39" width="18.3" height="18.3" transform="translate(-553.58 2208.62) rotate(-45)"/>
          <rect class="cls-52" x="2380.1" y="1873.2" width="18.3" height="18.3" transform="translate(-631.23 2240.78) rotate(-45)"/>
          <rect class="cls-52" x="2380.1" y="1983.02" width="18.3" height="18.3" transform="translate(-708.88 2272.95) rotate(-45)"/>
        </g>
        <rect class="cls-52" x="3421.75" y="69.77" width="75.8" height="75.8" transform="translate(937.18 2477.87) rotate(-45)"/>
        <rect class="cls-52" x="3421.75" y="176.86" width="75.8" height="75.8" transform="translate(861.45 2509.24) rotate(-45)"/>
        <rect class="cls-52" x="3421.75" y="284.58" width="75.8" height="75.8" transform="translate(785.28 2540.79) rotate(-45)"/>
        <g>
          <rect class="cls-52" x="1486.44" y="1314.56" width="75.8" height="75.8" transform="translate(-509.87 1474) rotate(-45)"/>
          <rect class="cls-52" x="1486.44" y="1421.66" width="75.8" height="75.8" transform="translate(-585.59 1505.37) rotate(-45)"/>
          <rect class="cls-52" x="1486.44" y="1529.37" width="75.8" height="75.8" transform="translate(-661.76 1536.91) rotate(-45)"/>
        </g>
        <g>
          <circle class="cls-54" cx="1793.25" cy="572.1" r="233.5"/>
          <rect class="cls-52" x="1934.44" y="616.47" width="38" height="38" transform="translate(122.8 1567.42) rotate(-45)"/>
          <rect class="cls-52" x="1934.44" y="670.16" width="38" height="38" transform="translate(84.84 1583.14) rotate(-45)"/>
          <rect class="cls-52" x="1934.44" y="724.16" width="38" height="38" transform="translate(46.65 1598.96) rotate(-45)"/>
          <path class="cls-43" d="m1675.75,301.6l130,130h-130v-130Z"/>
          <path class="cls-49" d="m1675.75,431.6l130,130h-130v-130Z"/>
          <path class="cls-47" d="m1805.75,301.6l130,130h-130v-130Z"/>
          <path class="cls-53" d="m1805.75,431.6l130,130h-130v-130Z"/>
        </g>
        <g>
          <circle class="cls-39" cx="3700.05" cy="1420.09" r="292.5"/>
          <path class="cls-51" d="m3337.55,1169.59l192.5,192.5h-192.5v-192.5Z"/>
          <path class="cls-50" d="m3337.55,1362.09l192.5,192.5h-192.5v-192.5Z"/>
          <path class="cls-41" d="m3530.05,1169.59l192.5,192.5h-192.5v-192.5Z"/>
          <path class="cls-45" d="m3530.05,1362.09l192.5,192.5h-192.5v-192.5Z"/>
        </g>
        <circle class="cls-39" cx="257" cy="1554.59" r="237"/>
        <g>
          <path class="cls-38" d="m632.3,1612.99l192.5,192.5h-192.5v-192.5Z"/>
          <path class="cls-42" d="m632.3,1805.49l192.5,192.5h-192.5v-192.5Z"/>
          <path class="cls-44" d="m824.8,1612.99l192.5,192.5h-192.5v-192.5Z"/>
          <path class="cls-48" d="m824.8,1805.49l192.5,192.5h-192.5v-192.5Z"/>
        </g>
        <g>
          <rect class="cls-25" x="1802.37" y="842.07" width="596" height="596" transform="translate(-190.97 1819.11) rotate(-45)"/>
          <rect class="cls-31" x="1827.37" y="867.07" width="546" height="546" transform="translate(-190.97 1819.1) rotate(-45)"/>
          <rect class="cls-8" x="1852.37" y="892.07" width="496" height="496" transform="translate(-190.97 1819.11) rotate(-45)"/>
          <rect class="cls-4" x="1902.37" y="942.07" width="396" height="396" transform="translate(-190.97 1819.11) rotate(-45)"/>
          <rect class="cls-1" x="1877.37" y="917.07" width="446" height="446" transform="translate(-190.97 1819.1) rotate(-45)"/>
          <rect class="cls-19" x="1927.37" y="967.07" width="346" height="346" transform="translate(-190.97 1819.1) rotate(-45)"/>
        </g>
        <g>
          <rect class="cls-52" x="2920.48" y="351.51" width="6" height="6" transform="translate(605.59 2171.05) rotate(-45)"/>
          <rect class="cls-52" x="2920.48" y="387.51" width="6" height="6" transform="translate(580.13 2181.59) rotate(-45)"/>
          <rect class="cls-52" x="2920.48" y="423.51" width="6" height="6" transform="translate(554.68 2192.14) rotate(-45)"/>
          <rect class="cls-52" x="2956.48" y="351.51" width="6" height="6" transform="translate(616.13 2196.5) rotate(-45)"/>
          <rect class="cls-52" x="2956.48" y="387.51" width="6" height="6" transform="translate(590.68 2207.05) rotate(-45)"/>
          <rect class="cls-52" x="2956.48" y="423.51" width="6" height="6" transform="translate(565.22 2217.59) rotate(-45)"/>
          <rect class="cls-52" x="2992.48" y="351.51" width="6" height="6" transform="translate(626.68 2221.96) rotate(-45)"/>
          <rect class="cls-52" x="2992.48" y="387.51" width="6" height="6" transform="translate(601.22 2232.5) rotate(-45)"/>
          <rect class="cls-52" x="2992.48" y="423.51" width="6" height="6" transform="translate(575.77 2243.05) rotate(-45)"/>
          <rect class="cls-52" x="3028.48" y="351.51" width="6" height="6" transform="translate(637.22 2247.42) rotate(-45)"/>
          <rect class="cls-52" x="3028.48" y="387.51" width="6" height="6" transform="translate(611.77 2257.96) rotate(-45)"/>
          <rect class="cls-52" x="3028.48" y="423.51" width="6" height="6" transform="translate(586.31 2268.5) rotate(-45)"/>
          <rect class="cls-52" x="3064.48" y="351.51" width="6" height="6" transform="translate(647.77 2272.87) rotate(-45)"/>
          <rect class="cls-52" x="3064.48" y="387.51" width="6" height="6" transform="translate(622.31 2283.42) rotate(-45)"/>
          <rect class="cls-52" x="3064.48" y="423.51" width="6" height="6" transform="translate(596.85 2293.96) rotate(-45)"/>
        </g>
        <g>
          <rect class="cls-52" x="504.72" y="2350.61" width="15.15" height="15.15" transform="translate(-1517.44 1052.94) rotate(-45)"/>
          <rect class="cls-52" x="504.72" y="2441.5" width="15.15" height="15.15" transform="translate(-1581.71 1079.56) rotate(-45)"/>
          <rect class="cls-52" x="504.72" y="2532.39" width="15.15" height="15.15" transform="translate(-1645.98 1106.18) rotate(-45)"/>
          <rect class="cls-52" x="595.61" y="2350.61" width="15.15" height="15.15" transform="translate(-1490.82 1117.21) rotate(-45)"/>
          <rect class="cls-52" x="595.61" y="2441.5" width="15.15" height="15.15" transform="translate(-1555.09 1143.83) rotate(-45)"/>
          <rect class="cls-52" x="595.61" y="2532.39" width="15.15" height="15.15" transform="translate(-1619.36 1170.46) rotate(-45)"/>
          <rect class="cls-52" x="686.51" y="2350.61" width="15.15" height="15.15" transform="translate(-1464.19 1181.48) rotate(-45)"/>
          <rect class="cls-52" x="686.51" y="2441.5" width="15.15" height="15.15" transform="translate(-1528.47 1208.11) rotate(-45)"/>
          <rect class="cls-52" x="686.51" y="2532.39" width="15.15" height="15.15" transform="translate(-1592.74 1234.73) rotate(-45)"/>
          <rect class="cls-52" x="777.4" y="2350.61" width="15.15" height="15.15" transform="translate(-1437.57 1245.76) rotate(-45)"/>
          <rect class="cls-52" x="777.4" y="2441.5" width="15.15" height="15.15" transform="translate(-1501.84 1272.38) rotate(-45)"/>
          <rect class="cls-52" x="777.4" y="2532.39" width="15.15" height="15.15" transform="translate(-1566.12 1299) rotate(-45)"/>
          <rect class="cls-52" x="868.29" y="2350.61" width="15.15" height="15.15" transform="translate(-1410.95 1310.03) rotate(-45)"/>
          <rect class="cls-52" x="868.29" y="2441.5" width="15.15" height="15.15" transform="translate(-1475.22 1336.65) rotate(-45)"/>
          <rect class="cls-52" x="868.29" y="2532.39" width="15.15" height="15.15" transform="translate(-1539.49 1363.27) rotate(-45)"/>
        </g>
        <g>
          <rect class="cls-52" x="444.68" y="45" width="17.19" height="17.19" transform="translate(94.86 336.21) rotate(-45)"/>
          <rect class="cls-52" x="444.68" y="148.16" width="17.19" height="17.19" transform="translate(21.92 366.43) rotate(-45)"/>
          <rect class="cls-52" x="547.83" y="45" width="17.19" height="17.19" transform="translate(125.07 409.15) rotate(-45)"/>
          <rect class="cls-52" x="547.83" y="148.16" width="17.19" height="17.19" transform="translate(52.13 439.37) rotate(-45)"/>
          <rect class="cls-52" x="650.98" y="45" width="17.19" height="17.19" transform="translate(155.29 482.09) rotate(-45)"/>
          <rect class="cls-52" x="650.98" y="148.16" width="17.19" height="17.19" transform="translate(82.35 512.31) rotate(-45)"/>
          <rect class="cls-52" x="754.14" y="45" width="17.19" height="17.19" transform="translate(185.5 555.03) rotate(-45)"/>
          <rect class="cls-52" x="754.14" y="148.16" width="17.19" height="17.19" transform="translate(112.56 585.25) rotate(-45)"/>
          <rect class="cls-52" x="857.29" y="45" width="17.19" height="17.19" transform="translate(215.71 627.97) rotate(-45)"/>
          <rect class="cls-52" x="857.29" y="148.16" width="17.19" height="17.19" transform="translate(142.77 658.19) rotate(-45)"/>
        </g>
        <g>
          <circle class="cls-54" cx="3326.08" cy="570.97" r="200"/>
          <rect class="cls-35" x="2958.35" y="475.23" width="596" height="596" transform="translate(407.01 2529.06) rotate(-45)"/>
          <rect class="cls-23" x="2983.34" y="500.23" width="546" height="546" transform="translate(407 2529.06) rotate(-45)"/>
          <rect class="cls-9" x="3008.35" y="525.23" width="496" height="496" transform="translate(407.01 2529.06) rotate(-45)"/>
          <rect class="cls-11" x="3058.35" y="575.23" width="396" height="396" transform="translate(407.01 2529.06) rotate(-45)"/>
          <rect class="cls-34" x="3033.34" y="550.23" width="446" height="446" transform="translate(407 2529.06) rotate(-45)"/>
          <rect class="cls-17" x="3083.34" y="600.23" width="346" height="346" transform="translate(407 2529.06) rotate(-45)"/>
          <path class="cls-46" d="m3219.08,740.97c0,27.61-22.39,50-50,50,27.61,0,50,22.39,50,50,0-27.61,22.38-50,50-50-27.62,0-50-22.39-50-50Z"/>
          <path class="cls-46" d="m3219.08,860.97c0,27.61-22.39,50-50,50,27.61,0,50,22.39,50,50,0-27.61,22.38-50,50-50-27.62,0-50-22.39-50-50Z"/>
          <path class="cls-46" d="m3219.08,620.97c0,27.61-22.39,50-50,50,27.61,0,50,22.38,50,50,0-27.62,22.38-50,50-50-27.62,0-50-22.39-50-50Z"/>
        </g>
        <path class="cls-46" d="m833.05,650c0,41.97-34.03,76-76,76,41.97,0,76,34.02,76,76,0-41.98,34.03-76,76-76-41.97,0-76-34.03-76-76Z"/>
        <path class="cls-46" d="m833.05,832.4c0,41.97-34.03,76-76,76,41.97,0,76,34.02,76,76,0-41.98,34.03-76,76-76-41.97,0-76-34.03-76-76Z"/>
        <path class="cls-46" d="m833.05,467.6c0,41.97-34.03,76-76,76,41.97,0,76,34.03,76,76,0-41.97,34.03-76,76-76-41.97,0-76-34.03-76-76Z"/>
        <g>
          <path class="cls-46" d="m3642.42,1939.95c0,41.97-34.03,76-76,76,41.97,0,76,34.02,76,76,0-41.98,34.03-76,76-76-41.97,0-76-34.03-76-76Z"/>
          <path class="cls-46" d="m3642.42,2122.35c0,41.97-34.03,76-76,76,41.97,0,76,34.02,76,76,0-41.98,34.03-76,76-76-41.97,0-76-34.03-76-76Z"/>
          <path class="cls-46" d="m3642.42,1757.54c0,41.97-34.03,76-76,76,41.97,0,76,34.03,76,76,0-41.97,34.03-76,76-76-41.97,0-76-34.03-76-76Z"/>
        </g>
        <path class="cls-46" d="m2593.05,1509.6c0,27.61-22.39,50-50,50,27.61,0,50,22.39,50,50,0-27.61,22.39-50,50-50-27.61,0-50-22.39-50-50Z"/>
        <path class="cls-46" d="m2593.05,1629.6c0,27.61-22.39,50-50,50,27.61,0,50,22.39,50,50,0-27.61,22.39-50,50-50-27.61,0-50-22.39-50-50Z"/>
        <path class="cls-46" d="m2593.05,1389.6c0,27.61-22.39,50-50,50,27.61,0,50,22.39,50,50,0-27.61,22.39-50,50-50-27.61,0-50-22.39-50-50Z"/>
        <circle class="cls-54" cx="4019.84" cy="298.29" r="237"/>
        <g>
          <path class="cls-46" d="m4056.53,422.29c0,27.61-22.39,50-50,50,27.61,0,50,22.39,50,50,0-27.61,22.39-50,50-50-27.61,0-50-22.39-50-50Z"/>
          <path class="cls-46" d="m4056.53,542.29c0,27.61-22.39,50-50,50,27.61,0,50,22.39,50,50,0-27.61,22.39-50,50-50-27.61,0-50-22.39-50-50Z"/>
          <path class="cls-46" d="m4056.53,302.29c0,27.61-22.39,50-50,50,27.61,0,50,22.39,50,50,0-27.61,22.39-50,50-50-27.61,0-50-22.39-50-50Z"/>
        </g>
        <circle class="cls-39" cx="3074.54" cy="14.48" r="292.5"/>
        <g>
          <path class="cls-39" d="m1691.85,1852.35l-171.43,171.43h171.43v-171.43Z"/>
          <path class="cls-39" d="m1520.42,1852.35l-171.43,171.43h171.43v-171.43Z"/>
          <path class="cls-39" d="m1691.85,2023.79l-171.43,171.43h171.43v-171.43Z"/>
          <path class="cls-39" d="m1520.42,2023.79l-171.43,171.43h171.43v-171.43Z"/>
          <path class="cls-39" d="m1863.29,1852.35l-171.43,171.43h171.43v-171.43Z"/>
          <path class="cls-39" d="m1863.29,2023.79l-171.43,171.43h171.43v-171.43Z"/>
        </g>
        <g>
          <rect class="cls-54" x="4014.01" y="794.32" width="10.25" height="10.25" transform="translate(611.89 3076.11) rotate(-45)"/>
          <rect class="cls-54" x="4014.01" y="855.84" width="10.25" height="10.25" transform="translate(568.38 3094.13) rotate(-45)"/>
          <rect class="cls-54" x="4014.01" y="917.37" width="10.25" height="10.25" transform="translate(524.88 3112.15) rotate(-45)"/>
          <rect class="cls-54" x="4075.54" y="794.32" width="10.25" height="10.25" transform="translate(629.91 3119.62) rotate(-45)"/>
          <rect class="cls-54" x="4075.54" y="855.84" width="10.25" height="10.25" transform="translate(586.4 3137.64) rotate(-45)"/>
          <rect class="cls-54" x="4075.54" y="917.37" width="10.25" height="10.25" transform="translate(542.9 3155.66) rotate(-45)"/>
          <rect class="cls-54" x="4137.06" y="794.32" width="10.25" height="10.25" transform="translate(647.93 3163.12) rotate(-45)"/>
          <rect class="cls-54" x="4137.06" y="855.84" width="10.25" height="10.25" transform="translate(604.42 3181.14) rotate(-45)"/>
          <rect class="cls-54" x="4137.06" y="917.37" width="10.25" height="10.25" transform="translate(560.92 3199.16) rotate(-45)"/>
          <rect class="cls-54" x="4198.59" y="794.32" width="10.25" height="10.25" transform="translate(665.95 3206.63) rotate(-45)"/>
          <rect class="cls-54" x="4198.59" y="855.84" width="10.25" height="10.25" transform="translate(622.44 3224.65) rotate(-45)"/>
          <rect class="cls-54" x="4198.59" y="917.37" width="10.25" height="10.25" transform="translate(578.94 3242.67) rotate(-45)"/>
          <rect class="cls-54" x="4260.11" y="794.32" width="10.25" height="10.25" transform="translate(683.97 3250.13) rotate(-45)"/>
          <rect class="cls-54" x="4260.11" y="855.84" width="10.25" height="10.25" transform="translate(640.46 3268.15) rotate(-45)"/>
          <rect class="cls-54" x="4260.11" y="917.37" width="10.25" height="10.25" transform="translate(596.96 3286.17) rotate(-45)"/>
        </g>
        <rect class="cls-52" x="4483.83" y="2088.21" width="76.76" height="76.76" transform="translate(-179.2 3820.54) rotate(-45)"/>
        <rect class="cls-52" x="4483.83" y="2196.65" width="76.76" height="76.76" transform="translate(-255.88 3852.31) rotate(-45)"/>
        <rect class="cls-52" x="4483.83" y="2305.73" width="76.76" height="76.76" transform="translate(-333.01 3884.25) rotate(-45)"/>
      </g>
    </g>
  </g>
</svg>